<?xml version="1.0" encoding="utf-8"?>
<!-- Generator: Adobe Illustrator 17.1.0, SVG Export Plug-In . SVG Version: 6.00 Build 0)  -->
<!DOCTYPE svg PUBLIC "-//W3C//DTD SVG 1.1//EN" "http://www.w3.org/Graphics/SVG/1.1/DTD/svg11.dtd">
<svg version="1.1" xmlns="http://www.w3.org/2000/svg" xmlns:xlink="http://www.w3.org/1999/xlink" x="0px" y="0px"
	 viewBox="0 0 36 36" enable-background="new 0 0 36 36" xml:space="preserve">
<g id="Layer_1" display="none">
</g>
<g id="Layer_2" display="none">
</g>
<g id="Layer_3">
	<rect x="-130.8" y="-205.6" fill="none" width="276.3" height="1354"/>
	<text transform="matrix(1 0 0 1 102.4286 -198.4725)"><tspan x="0" y="0" font-family="'MyriadPro-Regular'" font-size="10">Under 40°</tspan><tspan x="10" y="60" font-family="'MyriadPro-Regular'" font-size="10">40°–44°</tspan><tspan x="10" y="120" font-family="'MyriadPro-Regular'" font-size="10">45°–50°</tspan><tspan x="10" y="180" font-family="'MyriadPro-Regular'" font-size="10">50°–54°</tspan><tspan x="10" y="240" font-family="'MyriadPro-Regular'" font-size="10">55°–60°</tspan><tspan x="10" y="300" font-family="'MyriadPro-Regular'" font-size="10">60°–64°</tspan><tspan x="10" y="360" font-family="'MyriadPro-Regular'" font-size="10">65°–70°</tspan><tspan x="10" y="420" font-family="'MyriadPro-Regular'" font-size="10">70°–74°</tspan><tspan x="6.2" y="480" font-family="'MyriadPro-Regular'" font-size="10">Over 74°</tspan></text>
</g>
<g id="Layer_4">
	<g>
		<g>
			<path fill="#FFFFFF" d="M18.2,30.6c-0.3,0-0.6,0-0.8,0c-4,0-7.3-0.5-7.7-0.7c0,0,0,0,0,0c0,0-0.1-0.4-0.1-2.2
				c-0.1-3.9,0-11.3,0-11.3l0-1.2l-0.7,0.9c0,0-1.4,1.9-1.7,2.3c-0.1,0.2-0.1,0.3,0.3,3.7C7.7,23.8,8,26.2,8,27
				c-0.9,0.1-3.4,0.7-4.7,0.9c0-0.3-0.1-0.7-0.3-1.4c-0.4-2.3-1.2-6.5-0.9-7.6C3,16.4,6.4,7.9,7.9,7.3c1.6-0.7,5.1-0.8,5.9-0.8
				c0.4,0.4,1.7,1.7,3.9,2.7l0.2,0.1L18,9.1c2.2-1,3.9-2.3,4.4-2.7c0.7,0,4.4,0.1,6,0.8c1.5,0.7,4.7,9.1,5.5,11.7
				c0.4,1.2-0.1,6.1-0.3,8.2c0,0.4-0.1,0.7-0.1,1c-0.9,0-3.3-0.1-4.2-0.1c-0.1-0.8,0-3.9,0-5.6c0-1.6,0.1-2.1,0-2.3
				c-0.1-0.8-1.7-3.2-2-3.7l-0.8-1.2l0.1,1.4c0.3,6,0.5,12.6,0.2,13.3c-0.3,0.2-3.6,0.6-7.8,0.6C18.8,30.6,18.5,30.6,18.2,30.6z"/>
			<path d="M22.4,6.8c1.4,0,4.4,0.2,5.7,0.8c1.2,0.5,4.3,8.2,5.3,11.5c0.4,1.1-0.1,6.2-0.3,8.1c0,0.2,0,0.5-0.1,0.6
				c-0.9,0-2.6-0.1-3.5-0.1c-0.1-1.1,0-3.8,0-5.2c0-1.7,0.1-2.2,0-2.4c-0.2-0.9-1.6-3.2-2.1-3.8L26,14l0.2,2.8
				c0.3,5.5,0.5,11.5,0.3,12.9c-0.9,0.2-4,0.6-7.4,0.6c-0.3,0-0.5,0-0.8,0c-0.3,0-0.5,0-0.8,0c-3.5,0-6.4-0.3-7.3-0.6
				c0-0.3-0.1-0.8-0.1-2c-0.1-3.9,0-11.2,0-11.3l0-2.3L8.6,16c-0.1,0.1-1.4,1.9-1.7,2.3c-0.2,0.3-0.2,0.4,0.2,4
				c0.2,1.4,0.4,3.5,0.5,4.4c-0.9,0.2-2.6,0.5-4,0.8c0-0.3-0.1-0.6-0.2-1c-0.4-1.9-1.2-6.4-0.9-7.4C3.5,16.1,6.8,8.1,8,7.6
				c1.3-0.6,4.2-0.7,5.6-0.8c0.5,0.5,1.8,1.7,3.9,2.6l0.3,0.1l0.3-0.1C20.2,8.5,21.9,7.3,22.4,6.8 M22.2,6.1c0,0-2,1.6-4.4,2.7
				c-2.5-1.1-3.8-2.7-3.8-2.7s-4.4,0-6.2,0.8C5.9,7.7,2.3,17.2,1.8,18.9C1.3,20.5,3,27.7,3,28.3c0,0,4.9-1.1,5.3-1.1
				c0.4,0-1-8.3-0.8-8.6c0.3-0.4,1.7-2.3,1.7-2.3s-0.1,7.4,0,11.3c0,1.3,0.1,2.3,0.3,2.5c0.3,0.4,4,0.8,7.9,0.8c0.3,0,0.6,0,0.8,0
				c0.3,0,0.6,0,0.8,0c3.9,0,7.8-0.4,8.1-0.8c0.5-0.7-0.2-13.5-0.2-13.5s1.8,2.8,2,3.6c0.1,0.5-0.3,8.2,0.1,8.2
				c0.4,0,4.8,0.1,4.8,0.1c0-0.6,0.9-8.1,0.4-9.7c-0.5-1.6-3.9-11.2-5.7-12C26.6,6.1,22.2,6.1,22.2,6.1L22.2,6.1z"/>
		</g>
		<path fill="#FFFFFF" stroke="#000000" stroke-width="0.75" stroke-miterlimit="10" d="M14.1,5.2c4.8,0,10.3-1.9,11.6-1.9
			C27,3.2,25.8,9,25,8.9c-0.1,0-0.4,0-0.4,0"/>
		<path fill="#FFFFFF" stroke="#000000" stroke-width="0.75" stroke-miterlimit="10" d="M11.6,11.9c0,0,5.4,1.9,5.7,1.6
			c0.4-0.2,1.6-4.9,1.6-4.9l-6.5-0.8L11.6,11.9z"/>
		<path fill="#FFFFFF" stroke="#000000" stroke-width="0.75" stroke-miterlimit="10" d="M10.2,3.9c-0.7,0.6-0.1,4.4-0.2,4.5
			c-0.4,1,6.2,1.8,8.3,1.9c2.8,0.1,7.1-0.2,7.4-0.3c0.6-0.3,0.8-3.5,1.1-4.3c0.2-0.7-1.8,0.3-8-0.3C14.8,5,10.1,3.2,10.2,3.9z"/>
		<line fill="#E2F1E2" stroke="#000000" stroke-width="0.75" stroke-miterlimit="10" x1="11.6" y1="11.8" x2="11" y2="13.4"/>
		<line fill="#E2F1E2" stroke="#000000" stroke-width="0.75" stroke-miterlimit="10" x1="13.3" y1="12.5" x2="12.8" y2="14"/>
		<line fill="#E2F1E2" stroke="#000000" stroke-width="0.75" stroke-miterlimit="10" x1="15.3" y1="13.1" x2="14.8" y2="14.6"/>
		<line fill="#E2F1E2" stroke="#000000" stroke-width="0.75" stroke-miterlimit="10" x1="17.5" y1="13.2" x2="16.8" y2="15.2"/>
		<line fill="#FFFFFF" stroke="#000000" stroke-width="0.75" stroke-miterlimit="10" x1="2.5" y1="25.8" x2="7.6" y2="24.6"/>
		<path fill="#FFFFFF" stroke="#000000" stroke-width="0.75" stroke-miterlimit="10" d="M26.9,27.8c0,0-5.7,0.5-8.7,0.5
			s-8.7-0.5-8.7-0.5"/>
		<line fill="#FFFFFF" stroke="#000000" stroke-width="0.75" stroke-miterlimit="10" x1="33.4" y1="26" x2="29.3" y2="25.8"/>
	</g>
</g>
</svg>
