<?xml version="1.0" encoding="utf-8"?>
<!-- Generator: Adobe Illustrator 17.1.0, SVG Export Plug-In . SVG Version: 6.00 Build 0)  -->
<!DOCTYPE svg PUBLIC "-//W3C//DTD SVG 1.1//EN" "http://www.w3.org/Graphics/SVG/1.1/DTD/svg11.dtd">
<svg version="1.1" xmlns="http://www.w3.org/2000/svg" xmlns:xlink="http://www.w3.org/1999/xlink" x="0px" y="0px"
	 viewBox="0 0 36 36" enable-background="new 0 0 36 36" xml:space="preserve">
<g id="Layer_1" display="none">
</g>
<g id="Layer_2" display="none">
</g>
<g id="Layer_3">
	<rect x="-130.8" y="-167.2" fill="none" width="276.3" height="1354"/>
	<text transform="matrix(1 0 0 1 102.4286 -160.1392)"><tspan x="0" y="0" font-family="'MyriadPro-Regular'" font-size="10">Under 40°</tspan><tspan x="10" y="60" font-family="'MyriadPro-Regular'" font-size="10">40°–44°</tspan><tspan x="10" y="120" font-family="'MyriadPro-Regular'" font-size="10">45°–50°</tspan><tspan x="10" y="180" font-family="'MyriadPro-Regular'" font-size="10">50°–54°</tspan><tspan x="10" y="240" font-family="'MyriadPro-Regular'" font-size="10">55°–60°</tspan><tspan x="10" y="300" font-family="'MyriadPro-Regular'" font-size="10">60°–64°</tspan><tspan x="10" y="360" font-family="'MyriadPro-Regular'" font-size="10">65°–70°</tspan><tspan x="10" y="420" font-family="'MyriadPro-Regular'" font-size="10">70°–74°</tspan><tspan x="6.2" y="480" font-family="'MyriadPro-Regular'" font-size="10">Over 74°</tspan></text>
</g>
<g id="Layer_4">
	<g>
		<path fill="#FFFFFF" stroke="#000000" stroke-width="0.75" stroke-miterlimit="10" d="M22.2,12.6c0,0,3.5,0,5.3,0.8
			c1.8,0.8,4.4,8.7,4.9,10.4c0.5,1.6,0.4,8.7,0.4,9.3c0,0-4.3-0.1-4.8-0.1s0-5.7-0.1-6.2c-0.1-0.8-2.3-6.2-2.3-6.2s0,13.4-0.5,14.1
			c-0.3,0.4-3.7,0.9-7.9,0.8c-4.2,0.1-7.5-0.4-7.7-0.8c-0.1-0.2-0.2-1.1-0.3-2.5c-0.1-4-0.8-11.8-0.8-11.8s-1.6,4.3-1.9,4.7
			c-0.2,0.3,0.4,6.6-0.1,6.6s-4.5,1.1-4.5,1.1c0-0.6-1.2-7.5-0.7-9.1c0.5-1.6,3.6-9.5,5.4-10.3c1.8-0.8,6.2-0.8,6.2-0.8
			s-0.6-1.2-0.7-1.7c0,0-2.7-6.8,1.5-9.5c2.3-1.5,6.4-1,8.1,0.5c2,1.9,1.5,6.9,0.8,9L22.2,12.6z"/>
		<path fill="#FFFFFF" stroke="#000000" stroke-width="0.75" stroke-miterlimit="10" d="M17.5,35.5l0-20.8l0,0.4
			c0-0.6-4.2-6-3.6-9.5c0.3-1.7,2.5-3.4,3.7-3.3c1.3,0.1,3.7,1.9,3.8,3.7s-3.8,8.7-3.9,9"/>
		<path fill="none" stroke="#000000" stroke-width="0.75" stroke-miterlimit="10" d="M21.4,27.8c0,0,0,3.8,4.4,3.3"/>
		<path fill="none" stroke="#000000" stroke-width="0.75" stroke-miterlimit="10" d="M13.3,27.8c0,0-0.4,3.4-3.9,3.3"/>
	</g>
</g>
</svg>
